<svg width="92" height="29" viewBox="0 0 92 29" fill="none" xmlns="http://www.w3.org/2000/svg">
    <path fill="url(#eq4u6l1jfa)" d="M8.787 4.021h11.877v11.877H8.787z"/>
    <path fill="#1544EF" d="M0 13.107h11.877v11.877H0z"/>
    <path d="M25.16 13V3.653h3.285c2.159 0 3.245.899 3.245 2.75 0 1.863-1.113 2.842-3.245 2.842H27.25V13H25.16zm2.091-5.686h.979c.858 0 1.354-.134 1.354-.885 0-.71-.429-.845-1.354-.845h-.979v1.73zM32.846 13V3.653h2.106V13h-2.106zm2.988 0 3.044-4.64-3.057-4.707h2.521L40.34 6.9l1.998-3.246h2.508L41.788 8.36 44.846 13h-2.521l-1.998-3.124L38.355 13h-2.52zm9.872 0V3.653h6.276v1.931h-4.17v1.61h3.969v1.944h-3.97v1.931h4.17V13h-6.275zm7.936 0V3.653h2.105v7.416h3.836V13h-5.941zM25.16 24.574v-9.347h3.285c2.159 0 3.245.898 3.245 2.75 0 1.863-1.113 2.842-3.245 2.842H27.25v3.755H25.16zm2.091-5.686h.979c.858 0 1.354-.134 1.354-.885 0-.71-.429-.845-1.354-.845h-.979v1.73zm9.367 5.927c-2.71 0-4.573-1.971-4.573-4.908 0-2.95 1.864-4.921 4.573-4.921 2.735 0 4.586 1.957 4.586 4.921 0 2.95-1.878 4.908-4.586 4.908zm0-2.011c1.515 0 2.467-1.113 2.467-2.897 0-1.797-.952-2.91-2.467-2.91-1.502 0-2.468 1.086-2.468 2.91 0 1.81.966 2.897 2.468 2.897zm8.63 1.97c-1.944 0-3.472-1.166-3.754-2.95l2.092-.522c.094 1.1.764 1.609 1.703 1.609.684 0 1.247-.335 1.247-1.046 0-.43-.429-.751-1.65-1.247-1.997-.805-2.721-1.542-2.721-2.977 0-1.556 1.22-2.655 3.057-2.655 1.3 0 2.347.603 2.95 1.81l-1.743 1.086c-.282-.684-.738-1.032-1.274-1.032-.483 0-.885.308-.885.75 0 .456.362.778 1.703 1.301 2.011.778 2.655 1.449 2.655 2.776 0 1.85-1.475 3.098-3.38 3.098zm4.478-.2v-9.347h2.106v9.347h-2.106zm5.724 0v-7.416h-2.736v-1.931h7.59v1.931h-2.722v7.416H55.45zm5.735 0v-9.347h2.105v9.347h-2.105zm7.91.241c-2.71 0-4.573-1.971-4.573-4.908 0-2.95 1.864-4.921 4.573-4.921 2.735 0 4.586 1.957 4.586 4.921 0 2.95-1.878 4.908-4.586 4.908zm0-2.011c1.515 0 2.467-1.113 2.467-2.897 0-1.797-.952-2.91-2.467-2.91-1.502 0-2.468 1.086-2.468 2.91 0 1.81.966 2.897 2.468 2.897zm11.487-7.577h2.105v9.347h-2.159l-3.513-5.726v5.726h-2.106v-9.347h2.146l3.527 5.7v-5.7zm6.848 9.548c-1.945 0-3.473-1.167-3.755-2.95l2.092-.523c.094 1.1.764 1.609 1.703 1.609.684 0 1.247-.335 1.247-1.046 0-.43-.429-.751-1.65-1.247-1.997-.805-2.721-1.542-2.721-2.977 0-1.556 1.22-2.655 3.057-2.655 1.3 0 2.347.603 2.95 1.81l-1.743 1.086c-.282-.684-.738-1.032-1.274-1.032-.483 0-.885.308-.885.75 0 .456.362.778 1.703 1.301 2.011.778 2.655 1.449 2.655 2.776 0 1.85-1.475 3.098-3.38 3.098z" fill="#fff"/>
    <defs>
        <linearGradient id="eq4u6l1jfa" x1="20.5" y1="4" x2="8" y2="16.5" gradientUnits="userSpaceOnUse">
            <stop stop-color="#fff"/>
            <stop offset="1" stop-color="#999"/>
        </linearGradient>
    </defs>
</svg>
